<svg version="1.1" id="Layer_1" xmlns="http://www.w3.org/2000/svg" xmlns:xlink="http://www.w3.org/1999/xlink" x="0px" y="0px"
	 width="100%" viewBox="0 0 352 256" enable-background="new 0 0 352 256" xml:space="preserve">
<path fill="#000000" opacity="1.000000" stroke="none" 
	d="
M188.274521,40.770149 
	C238.370682,39.248119 281.511139,83.381790 280.281769,136.453430 
	C279.370544,175.791763 253.903000,209.887009 216.275375,222.534760 
	C172.561920,237.228149 125.518074,213.623016 107.228073,175.018066 
	C100.333282,160.465149 96.344269,145.299210 98.893257,129.080826 
	C101.126808,114.869400 103.154366,111.315918 116.105789,108.969643 
	C119.584526,108.339432 119.865799,106.322662 119.647209,103.610558 
	C118.983650,95.377594 120.562370,87.654793 125.351852,80.837799 
	C131.882660,71.542328 140.949753,67.196930 152.301743,67.660271 
	C154.310303,67.742256 156.080368,68.094879 156.961197,65.311630 
	C161.719711,50.275814 172.678635,42.865471 188.274521,40.770149 
M180.017654,104.898384 
	C177.091858,118.468132 168.715073,126.351311 155.124710,128.877441 
	C152.678940,129.332062 150.356461,129.585175 149.052963,126.968857 
	C146.935272,122.718353 149.291199,116.026176 153.478149,113.431595 
	C155.584900,112.126083 157.687729,110.658142 159.383667,108.874985 
	C164.553970,103.438759 164.119751,94.919220 158.634232,90.142487 
	C153.055969,85.285011 144.870193,86.001801 140.003555,91.773872 
	C136.117889,96.382477 136.052933,103.972015 140.412613,109.869568 
	C143.701843,114.319077 145.136581,119.025360 144.175369,124.384293 
	C142.646011,132.910751 140.022186,141.157089 137.223846,149.330765 
	C135.705780,153.764938 132.242905,154.879272 128.030884,152.903687 
	C124.605835,151.297226 124.632217,148.346512 124.645798,145.278809 
	C124.664452,141.067642 124.149384,137.121552 119.327354,135.262024 
	C114.135155,150.761337 126.672615,177.050552 145.711899,191.974442 
	C167.168686,208.793304 195.775101,210.020142 210.169922,202.521210 
	C207.696243,199.161987 208.163406,195.448685 208.892120,191.647018 
	C211.349976,178.824234 204.311432,169.461746 191.146194,169.115036 
	C175.191483,168.694870 165.417053,159.626923 157.951874,146.946487 
	C155.433243,142.668304 156.900665,137.994553 161.044418,135.152985 
	C165.247787,132.270538 168.581223,133.847916 171.552765,137.180695 
	C172.771133,138.547195 173.969833,139.945419 175.036819,141.430283 
	C179.635117,147.829514 185.511383,150.888565 193.714111,150.819351 
	C212.671600,150.659409 227.041092,166.001892 226.352280,184.908401 
	C226.228973,188.292923 225.934784,191.671249 225.706558,195.255356 
	C242.941483,188.180786 260.198029,160.638596 260.023834,140.654877 
	C257.768707,141.398346 255.604202,142.119110 253.435150,142.825867 
	C236.929169,148.204224 220.811371,139.702072 215.335159,123.213081 
	C212.366928,114.275627 214.363983,105.744148 216.130707,97.125099 
	C217.756775,89.192291 217.364517,81.535301 213.759018,74.221901 
	C208.722061,64.004898 196.790894,58.314167 186.758560,61.119091 
	C181.428513,62.609306 177.766235,66.127876 175.092316,70.698990 
	C173.371399,73.640900 171.409683,74.227684 168.532318,72.564011 
	C167.705994,72.086227 166.713547,71.895760 164.783478,71.217056 
	C176.238953,80.092323 181.567841,90.543846 180.017654,104.898384 
z"/>
</svg>